PathFileType	4	(X/Y/Z)	Kaydara																																																																																																																									
DataRate	CameraRate	NumFrames	NumMarkers	Units	OrigDataRate	OrigDataStartFrame	OrigNumFrames																																																																																																																					
30	30	7	41	mm	30	105	115																																																																																																																					
Frame#	Time	PAIB_LFHD			PAIB_RFHD			PAIB_LBHD			PAIB_RBHD			PAIB_LFTShould			PAIB_RFTShould			PAIB_LRRShould			PAIB_RRRShould			PAIB_T10			PAIB_STRN			PAIB_TRUN			PAIB_LSHO			PAIB_LUPA			PAIB_LELB			PAIB_LFRM			PAIB_LWRA			PAIB_LWRB			PAIB_LFIN			PAIB_RSHO			PAIB_RUPA			PAIB_RELB			PAIB_RFRM			PAIB_RWRA			PAIB_RWRB			PAIB_RFIN			PAIB_LFWT			PAIB_RFWT			PAIB_LBWT			PAIB_RBWT			PAIB_LTHI			PAIB_LKNE			PAIB_LSHN			PAIB_LANK			PAIB_LHEE			PAIB_LTOE			PAIB_RTHI			PAIB_RKNE			PAIB_RSHN			PAIB_RANK			PAIB_RHEE			PAIB_RTOE		
		X1	Y1	Z1	X2	Y2	Z2	X3	Y3	Z3	X4	Y4	Z4	X5	Y5	Z5	X6	Y6	Z6	X7	Y7	Z7	X8	Y8	Z8	X9	Y9	Z9	X10	Y10	Z10	X11	Y11	Z11	X12	Y12	Z12	X13	Y13	Z13	X14	Y14	Z14	X15	Y15	Z15	X16	Y16	Z16	X17	Y17	Z17	X18	Y18	Z18	X19	Y19	Z19	X20	Y20	Z20	X21	Y21	Z21	X22	Y22	Z22	X23	Y23	Z23	X24	Y24	Z24	X25	Y25	Z25	X26	Y26	Z26	X27	Y27	Z27	X28	Y28	Z28	X29	Y29	Z29	X30	Y30	Z30	X31	Y31	Z31	X32	Y32	Z32	X33	Y33	Z33	X34	Y34	Z34	X35	Y35	Z35	X36	Y36	Z36	X37	Y37	Z37	X38	Y38	Z38	X39	Y39	Z39	X40	Y40	Z40	X41	Y41	Z41
																																																																																																																												
87	3.467	286.5423	1559.68857	971.92108	101.21264	1563.20633	970.7132	294.48217	1544.2189	843.52577	91.3453	1558.99689	855.2459	264.27429	1307.46964	907.84615	142.59242	1304.42276	923.75931	247.56187	1400.73532	782.61299	101.59245	1400.55161	808.17993	155.35367	1263.13889	681.23398	215.70797	1234.09973	936.53358	214.63243	1130.00702	935.44281	372.5914	1355.88028	810.63698	490.37876	1230.01289	674.76341	514.10427	1195.05562	598.2354	591.65451	1103.36876	564.04598	614.15142	948.35953	570.51147	635.32066	991.47682	506.08776	675.40146	934.52621	534.42318	21.6867	1335.05524	897.26418	-75.80946	1183.31604	905.38322	-111.60071	1074.63425	936.18652	-21.04759	995.86922	1018.83957	126.25525	1014.07242	1054.27818	75.13595	955.82954	1092.82066	129.13116	994.5594	1130.94933	283.51904	872.93556	854.45587	49.60109	857.47643	836.85547	258.12082	915.92445	636.64509	113.81469	940.24178	633.85204	298.7323	634.55242	745.02991	322.45079	472.83939	994.45473	295.42671	304.24984	1078.27309	288.40254	98.05203	1080.11253	224.18137	72.98772	1046.22711	289.23899	127.5986	1252.83073	62.85691	694.67697	554.93145	55.61947	438.73375	526.54446	123.81267	262.68267	465.65071	113.46066	127.63627	290.95564	177.60342	144.01933	263.07938	112.06549	50.95884	456.62365
88	3.5	295.20071	1549.15314	1046.64513	109.88836	1553.02521	1045.38986	303.2262	1531.94733	918.42293	100.08496	1547.25006	929.96689	272.22157	1294.69376	984.5932	151.28726	1293.96622	1003.34824	253.38318	1387.74277	858.65593	107.22313	1389.32907	887.78915	156.46959	1249.88609	761.07063	223.70916	1221.90628	1014.45229	221.44293	1117.85507	1014.41147	376.52885	1340.45807	886.04759	495.15442	1215.34225	752.14851	519.45171	1181.93382	674.2865	598.06721	1092.31796	638.77716	622.43156	937.44858	642.68913	643.87123	981.81198	579.00066	684.33517	925.08865	607.46075	27.37769	1325.11444	978.7233	-73.77028	1174.15138	982.12051	-111.35487	1065.69382	1012.11716	-18.87589	987.15454	1094.22195	128.3949	1007.73338	1129.36752	78.37429	947.88277	1166.97556	131.24273	987.29057	1205.7634	283.49478	864.86496	932.99477	49.97615	841.76125	917.33482	257.65295	907.96135	714.68834	111.7308	927.1244	714.81316	304.64228	628.80852	825.86624	319.33796	463.39645	1068.75145	287.51547	289.42713	1149.39941	277.38855	87.08015	1133.25485	211.58382	69.63677	1098.2399	272.87571	83.69561	1314.99313	67.81223	683.96553	632.34886	53.23571	432.47227	590.66399	119.42041	263.42983	507.14252	108.64939	156.52125	313.66894	173.349	177.05179	291.09497	110.74447	50.23698	458.26069
89	3.533	303.27419	1549.07852	1122.59933	117.82598	1552.42554	1120.4509	311.7934	1530.05356	994.72984	108.43359	1545.08835	1005.05302	277.3275	1287.38464	1061.49086	157.20286	1288.9325	1082.89597	260.06157	1385.86502	937.66205	111.67805	1387.60162	971.1586	157.77418	1251.41991	839.44298	228.16172	1215.77576	1091.78055	224.42934	1111.84219	1091.0778	383.90114	1329.51126	965.1844	500.40985	1192.34238	836.60225	524.60499	1157.70676	760.74478	600.29758	1065.39543	728.10509	619.01859	911.48834	733.15292	643.63838	954.5491	669.28894	682.18269	898.24471	700.92186	30.32498	1317.97882	1062.54486	-71.88039	1166.76964	1053.61038	-109.76727	1057.04277	1074.95132	-21.74246	969.49356	1153.16208	123.98673	982.58278	1194.04808	70.7469	921.88103	1225.24055	123.32318	956.5271	1268.64372	292.10205	868.84453	1004.90173	58.05573	838.57857	996.36955	251.06342	907.62123	784.59206	104.08453	919.30031	790.79048	303.94396	630.64293	899.9649	322.64561	477.65263	1155.96016	286.27655	289.5035	1205.10986	280.24332	90.57192	1152.20985	219.97965	79.029	1107.11563	268.48291	59.1503	1327.98721	69.39823	668.06755	718.74496	49.14184	416.9558	690.121	111.85527	265.26785	577.33078	99.43034	200.19974	365.48969	164.17234	227.21464	350.36102	112.2323	48.25952	458.35747
90	3.567	309.06168	1554.29596	1196.3382	123.66169	1560.48813	1195.5159	316.7417	1536.24191	1068.40454	113.76965	1554.04282	1080.06584	279.64085	1291.99768	1134.28246	159.93958	1294.50058	1154.4899	264.72458	1393.77121	1010.77858	115.09453	1396.12061	1044.00284	160.19974	1261.87973	910.58907	228.771	1220.74738	1164.03687	224.09018	1116.77834	1161.79245	388.41209	1330.08636	1042.58522	499.25964	1170.41321	928.8089	524.08596	1133.37791	853.27026	593.07102	1034.10408	827.88307	601.24901	881.42677	843.15117	628.48129	917.37038	775.96535	665.15656	864.11964	813.08235	33.06276	1321.57547	1134.50661	-66.57073	1169.08745	1115.47752	-105.76557	1058.46977	1124.40445	-31.69305	952.93167	1193.72559	111.05518	945.22667	1243.83255	50.07896	887.81502	1264.08859	101.84767	910.54031	1314.16138	298.62343	881.67473	1075.03601	65.25525	846.23749	1071.92551	247.43666	913.71796	853.48152	100.73248	919.64172	861.67908	305.70047	639.48341	966.32042	328.96442	474.80083	1203.38829	286.19022	283.39092	1240.51514	278.82933	90.96047	1164.54979	220.67614	84.12455	1115.14778	264.74899	45.79688	1336.30936	63.40803	642.01035	815.66345	47.73458	391.79871	819.21638	116.37941	271.22187	680.94879	91.89042	243.23212	463.28884	152.63458	278.21356	449.46175	105.0737	51.795	520.94337
91	3.6	310.54388	1569.64111	1269.459	125.07419	1576.09528	1266.92848	319.52663	1555.0589	1141.62109	116.37069	1572.72064	1151.27213	277.56443	1309.72	1204.52072	156.59485	1313.50998	1219.43924	270.28034	1409.72458	1079.24393	118.84176	1413.29559	1105.71152	169.26908	1277.39464	976.89102	225.41977	1238.98331	1232.4868	220.19098	1134.90395	1229.73007	392.50225	1341.18057	1115.9552	493.02452	1159.97803	1020.77171	518.79875	1114.05441	949.47853	577.56115	1006.72623	935.82809	569.22874	856.69571	965.61005	602.92366	882.34085	896.46812	632.6123	830.85648	941.22803	28.79591	1338.39325	1190.84763	-64.1897	1181.78345	1162.28111	-101.71528	1070.02304	1160.44388	-48.70061	948.36609	1219.47487	86.08343	911.98692	1276.51794	15.90039	862.51678	1285.07904	65.82648	869.91226	1341.26236	304.77081	897.34901	1142.39281	71.97671	864.53842	1144.50211	246.82482	931.53198	920.99861	100.02086	931.59958	931.94931	305.11023	652.60056	1016.90735	325.61268	464.27624	1238.60916	281.84917	273.47889	1259.91066	276.33142	90.60757	1167.8495	218.84449	86.07756	1117.68677	261.21567	42.83431	1338.98376	59.4102	634.88941	917.30827	45.27636	390.15644	956.01257	118.16961	278.10223	812.16438	90.03125	255.0684	593.81935	151.06377	290.0127	579.16821	104.73504	74.49456	657.28088
92	3.633	308.92029	1591.85852	1339.19891	123.32261	1596.45035	1334.64752	319.21217	1580.16876	1211.15356	115.67122	1595.69305	1219.20418	274.71016	1333.70163	1271.99753	153.53122	1338.03986	1282.16827	273.77628	1430.90942	1145.71091	121.78563	1435.16541	1166.87202	176.68043	1298.45154	1040.91377	221.21597	1263.39966	1298.45825	215.80658	1159.44565	1296.96899	395.41656	1359.17725	1185.541	484.65431	1156.39732	1110.30312	507.21546	1100.56053	1048.28773	554.70432	986.70883	1050.22224	527.53983	842.49863	1092.60826	569.11354	857.52647	1024.85519	589.27803	808.18916	1077.54433	24.05498	1359.94659	1245.73601	-65.38018	1203.20885	1197.2348	-100.70149	1090.23956	1187.35039	-70.3933	956.40053	1233.72581	50.01554	891.49635	1298.09189	-25.8391	852.06459	1290.07263	15.64921	843.8649	1352.1283	310.68241	916.75446	1208.44261	76.29318	891.96907	1215.16693	246.4053	953.98041	989.17526	100.5999	954.44893	1002.39517	301.97641	672.72293	1062.22878	321.45264	466.71452	1261.50879	282.07504	271.68167	1268.10806	276.16203	92.939	1169.0847	218.41208	88.64337	1119.11255	259.15852	42.5397	1339.51248	58.6993	641.60316	1019.23897	41.39599	406.6917	1094.37309	113.96582	280.97818	963.62984	91.36579	236.57585	747.52525	153.79874	267.943	729.25812	105.5808	69.20965	843.66447
93	3.667	305.9989	1613.2338	1405.27939	120.31771	1616.08871	1400.06516	316.88698	1603.13538	1277.1981	113.03133	1616.36398	1284.41849	272.29601	1357.95135	1338.84262	150.9748	1360.8815	1344.21494	277.04443	1450.10117	1210.69221	125.04766	1455.17838	1226.69991	184.72195	1317.13745	1104.0641	218.81588	1287.64847	1364.198	214.91581	1183.56995	1363.99597	397.78248	1377.30927	1255.541	470.31757	1159.98627	1202.63062	490.25581	1094.16206	1147.59308	525.42755	977.17255	1165.34325	481.23791	841.45058	1221.94649	528.18905	845.22896	1156.39526	540.03048	800.3817	1216.0141	20.25296	1381.97815	1299.13284	-65.11101	1227.8212	1234.59068	-101.0616	1116.15471	1213.23448	-93.38489	975.35645	1242.9464	7.75259	884.05815	1311.88477	-70.11667	857.21085	1286.99814	-40.98776	834.40681	1352.16782	315.22608	936.26625	1275.45914	79.50332	920.11345	1286.31592	244.25955	975.79933	1059.78668	100.83303	975.69519	1072.79068	295.1791	695.61951	1104.12056	319.19947	464.85157	1267.93678	281.01461	272.14537	1271.9239	275.92962	94.66813	1169.79561	218.46104	90.54637	1119.80797	258.64536	42.36621	1340.19501	56.47812	657.69402	1118.8826	38.09669	432.61856	1226.3588	108.16883	282.40566	1121.9931	93.18926	199.82059	917.96211	157.03562	224.66469	894.77242	103.88293	60.03052	1049.38332
